<svg width="191" height="84" viewBox="0 0 191 84" fill="none" xmlns="http://www.w3.org/2000/svg">
<path fill-rule="evenodd" clip-rule="evenodd" d="M40.2475 18.9C45.4666 18.9 49.6975 14.6691 49.6975 9.45C49.6975 4.23091 45.4666 0 40.2475 0C35.0284 0 30.7975 4.23091 30.7975 9.45C30.7975 14.6691 35.0284 18.9 40.2475 18.9ZM24.892 33.4688H2.05361V21.2626H40.247L40.2475 21.2625L66.6286 21.2626V33.4688H38.0568L35.4056 48.2405C33.9205 56.5158 29.8255 64.0983 23.7201 69.8785L9.35845 83.475L0.872461 73.6335L10.4964 65.4343C17.9831 59.0559 22.8117 50.1066 24.032 40.3472L24.892 33.4688ZM36.8089 52.3688L62.8544 64.5276L58.0242 74.8744L31.9787 62.7156L36.8089 52.3688Z" fill="#000002"/>
<path d="M71.3457 67.7505L71.6533 64.3667C73.4079 64.3667 74.9232 64.0021 76.1992 63.2729C77.4753 62.5324 78.5234 61.5412 79.3438 60.2993C80.1755 59.0461 80.7907 57.639 81.1895 56.0781C81.5996 54.5059 81.8047 52.8823 81.8047 51.2075H85.3252C85.3252 53.3608 85.0119 55.4287 84.3853 57.4111C83.7586 59.3936 82.8472 61.1652 81.6509 62.7261C80.4546 64.2756 78.9906 65.5003 77.2588 66.4004C75.527 67.3005 73.556 67.7505 71.3457 67.7505ZM69.1924 75.4751V51.2075H72.7471V75.4751H69.1924ZM82.3516 75.4751L76.1992 63.6489L79.2754 61.9058L86.4873 75.4751H82.3516ZM96.7754 75.4751V58.3853H100.398V75.4751H96.7754ZM89.8711 75.4751V72.2964H97.1172V75.4751H89.8711ZM100.057 75.4751V72.2964H105.97V75.4751H100.057ZM90.8965 60.5386V57.3599H100.398V60.5386H90.8965ZM98.4673 54.4888C97.7723 54.4888 97.1742 54.2438 96.6729 53.7539C96.1829 53.2526 95.938 52.6545 95.938 51.9595C95.938 51.2531 96.1829 50.6549 96.6729 50.165C97.1742 49.6751 97.7723 49.4302 98.4673 49.4302C99.1737 49.4302 99.7718 49.6751 100.262 50.165C100.752 50.6549 100.997 51.2531 100.997 51.9595C100.997 52.6545 100.752 53.2526 100.262 53.7539C99.7718 54.2438 99.1737 54.4888 98.4673 54.4888ZM119.642 75.8169C116.554 75.8169 114.167 75.008 112.481 73.3901C110.806 71.7609 109.969 69.4253 109.969 66.3833C109.969 63.4211 110.761 61.1196 112.344 59.479C113.939 57.8384 116.212 57.0181 119.163 57.0181C120.929 57.0181 122.439 57.3485 123.692 58.0093C124.957 58.6587 125.857 59.5815 126.392 60.7778L123.606 62.8799C123.094 62.0482 122.439 61.4045 121.641 60.9487C120.844 60.493 119.972 60.2651 119.026 60.2651C117.317 60.2651 115.99 60.7835 115.044 61.8203C114.099 62.8457 113.626 64.3097 113.626 66.2124C113.626 68.2746 114.179 69.8525 115.284 70.9463C116.4 72.0286 117.99 72.5698 120.052 72.5698C120.895 72.5698 121.738 72.5299 122.581 72.4502C123.424 72.3704 124.244 72.2622 125.042 72.1255L125.452 75.3042C124.518 75.5093 123.549 75.646 122.547 75.7144C121.556 75.7827 120.587 75.8169 119.642 75.8169ZM133.45 68.605V65.3579H135.501C137.005 65.3579 138.241 65.1016 139.209 64.5889C140.178 64.0648 140.936 63.216 141.482 62.0425C142.041 60.869 142.451 59.3081 142.713 57.3599H146.473C145.994 61.131 144.917 63.9508 143.243 65.8193C141.579 67.6764 139.284 68.605 136.355 68.605H133.45ZM130.887 75.4751V49.8403H134.51V75.4751H130.887ZM143.157 75.4751L137.996 66.6567L141.414 65.2554L147.635 75.4751H143.157ZM158.299 75.4751V58.3853H161.922V75.4751H158.299ZM151.395 75.4751V72.2964H158.641V75.4751H151.395ZM161.58 75.4751V72.2964H167.493V75.4751H161.58ZM152.42 60.5386V57.3599H161.922V60.5386H152.42ZM159.991 54.4888C159.296 54.4888 158.698 54.2438 158.196 53.7539C157.706 53.2526 157.461 52.6545 157.461 51.9595C157.461 51.2531 157.706 50.6549 158.196 50.165C158.698 49.6751 159.296 49.4302 159.991 49.4302C160.697 49.4302 161.295 49.6751 161.785 50.165C162.275 50.6549 162.52 51.2531 162.52 51.9595C162.52 52.6545 162.275 53.2526 161.785 53.7539C161.295 54.2438 160.697 54.4888 159.991 54.4888ZM177.645 75.4751V51.2075H181.199V75.4751H177.645ZM170.535 54.4546V51.2075H188.309V54.4546H170.535Z" fill="#000002"/>
</svg>
